# xmcd
#
# Track frame offsets:
#	150
#	20749
#	39446
#	57252
#	71625
#	87485
#	98987
#	113875
#	132843
#	150461
#
# Disc length: 2269 seconds
#
# Revision: 0
# Processed by: cddbd v1.5.2PL0 Copyright (c) Steve Scherf et al.
# Submitted via: EasyCDDAExtractor 12.0.4.1
#
DISCID=8308db0a
DTITLE=Les Chercheurs d'Or
DYEAR=2014
DGENRE=Country
TTITLE0=Belle Country
TTITLE1=Shirley
TTITLE2=Le Blues d'être tout seul en prison
TTITLE3=Emmenez-Moi Au Saule
TTITLE4=Adieu, Mari
TTITLE5=Allume Donc La Radio
TTITLE6=Vallée-Tranquille
TTITLE7=L'impression Que C'est Dimanche
TTITLE8=Dame Corbeau
TTITLE9=Tout Explose
EXTD=
EXTT0=
EXTT1=
EXTT2=
EXTT3=
EXTT4=
EXTT5=
EXTT6=
EXTT7=
EXTT8=
EXTT9=
PLAYORDER=
